<svg width="84" height="16" viewBox="0 0 84 16" fill="none" xmlns="http://www.w3.org/2000/svg">
<circle cx="7.87818" cy="8.00393" r="7.22004" fill="#1935CA"/>
<path d="M18.3203 7.53314C18.3203 6.89283 18.4588 6.32334 18.7359 5.82464C19.013 5.31979 19.3978 4.92884 19.8903 4.65178C20.389 4.36857 20.9523 4.22697 21.5803 4.22697C22.3499 4.22697 23.0087 4.43014 23.5566 4.83649C24.1046 5.24283 24.4709 5.79694 24.6556 6.4988H22.9194C22.7901 6.22791 22.6054 6.02166 22.3653 5.88005C22.1313 5.73845 21.8635 5.66765 21.5618 5.66765C21.0755 5.66765 20.6814 5.83696 20.3797 6.17558C20.0781 6.5142 19.9272 6.96672 19.9272 7.53314C19.9272 8.09955 20.0781 8.55207 20.3797 8.89069C20.6814 9.22931 21.0755 9.39863 21.5618 9.39863C21.8635 9.39863 22.1313 9.32782 22.3653 9.18622C22.6054 9.04461 22.7901 8.83836 22.9194 8.56747H24.6556C24.4709 9.26933 24.1046 9.82344 23.5566 10.2298C23.0087 10.63 22.3499 10.8301 21.5803 10.8301C20.9523 10.8301 20.389 10.6915 19.8903 10.4145C19.3978 10.1313 19.013 9.74032 18.7359 9.24163C18.4588 8.74293 18.3203 8.17344 18.3203 7.53314ZM31.0714 5.6307L27.8391 13.2312H26.1399L27.3219 10.6084L25.2256 5.6307H26.9895L28.1808 8.85375L29.3629 5.6307H31.0714ZM33.4064 6.36028C33.5541 6.12017 33.7665 5.92623 34.0436 5.77847C34.3206 5.6307 34.6377 5.55682 34.9948 5.55682C35.4196 5.55682 35.8044 5.66457 36.1492 5.88005C36.494 6.09554 36.7649 6.40337 36.9619 6.80356C37.165 7.20375 37.2666 7.66858 37.2666 8.19806C37.2666 8.72754 37.165 9.19545 36.9619 9.6018C36.7649 10.002 36.494 10.3129 36.1492 10.5345C35.8044 10.75 35.4196 10.8578 34.9948 10.8578C34.6316 10.8578 34.3145 10.787 34.0436 10.6454C33.7727 10.4976 33.5603 10.3037 33.4064 10.0636V10.7839H31.8272V3.94992H33.4064V6.36028ZM35.6597 8.19806C35.6597 7.80403 35.5489 7.49619 35.3273 7.27455C35.1118 7.04675 34.844 6.93285 34.5238 6.93285C34.2098 6.93285 33.942 7.04675 33.7204 7.27455C33.5049 7.50235 33.3971 7.81327 33.3971 8.2073C33.3971 8.60133 33.5049 8.91224 33.7204 9.14004C33.942 9.36784 34.2098 9.48174 34.5238 9.48174C34.8378 9.48174 35.1056 9.36784 35.3273 9.14004C35.5489 8.90609 35.6597 8.59209 35.6597 8.19806ZM43.1375 8.12418C43.1375 8.27194 43.1282 8.42586 43.1098 8.58594H39.5358C39.5604 8.90609 39.662 9.15236 39.8406 9.32474C40.0253 9.49098 40.25 9.57409 40.5147 9.57409C40.9087 9.57409 41.1827 9.40786 41.3366 9.0754H43.0174C42.9312 9.41402 42.7742 9.71878 42.5464 9.98967C42.3248 10.2606 42.0447 10.473 41.706 10.6269C41.3674 10.7808 40.9888 10.8578 40.5701 10.8578C40.0653 10.8578 39.6158 10.75 39.2218 10.5345C38.8278 10.3191 38.5199 10.0112 38.2983 9.61103C38.0767 9.21084 37.9658 8.74293 37.9658 8.2073C37.9658 7.67166 38.0736 7.20375 38.2891 6.80356C38.5107 6.40337 38.8185 6.09554 39.2126 5.88005C39.6066 5.66457 40.0591 5.55682 40.5701 5.55682C41.0688 5.55682 41.5121 5.66149 41.9 5.87082C42.2879 6.08015 42.5895 6.37875 42.805 6.76662C43.0267 7.1545 43.1375 7.60702 43.1375 8.12418ZM41.5213 7.7086C41.5213 7.43771 41.429 7.22222 41.2443 7.06215C41.0596 6.90207 40.8287 6.82203 40.5517 6.82203C40.2869 6.82203 40.0622 6.89899 39.8775 7.05291C39.6989 7.20683 39.5881 7.42539 39.545 7.7086H41.5213ZM45.7345 6.48957C45.9192 6.20636 46.1501 5.98472 46.4271 5.82464C46.7042 5.65841 47.012 5.57529 47.3506 5.57529V7.24685H46.9166C46.5226 7.24685 46.227 7.33304 46.03 7.50543C45.833 7.67166 45.7345 7.96718 45.7345 8.392V10.7839H44.1553V5.6307H45.7345V6.48957ZM50.6082 9.30627L51.7256 5.6307H53.4064L51.5779 10.7839H49.6293L47.8007 5.6307H49.4907L50.6082 9.30627ZM59.1135 8.12418C59.1135 8.27194 59.1042 8.42586 59.0858 8.58594H55.5118C55.5364 8.90609 55.638 9.15236 55.8166 9.32474C56.0013 9.49098 56.226 9.57409 56.4907 9.57409C56.8847 9.57409 57.1587 9.40786 57.3126 9.0754H58.9934C58.9072 9.41402 58.7502 9.71878 58.5224 9.98967C58.3008 10.2606 58.0207 10.473 57.682 10.6269C57.3434 10.7808 56.9648 10.8578 56.5461 10.8578C56.0413 10.8578 55.5918 10.75 55.1978 10.5345C54.8038 10.3191 54.4959 10.0112 54.2743 9.61103C54.0526 9.21084 53.9418 8.74293 53.9418 8.2073C53.9418 7.67166 54.0496 7.20375 54.2651 6.80356C54.4867 6.40337 54.7945 6.09554 55.1886 5.88005C55.5826 5.66457 56.0351 5.55682 56.5461 5.55682C57.0448 5.55682 57.4881 5.66149 57.876 5.87082C58.2639 6.08015 58.5655 6.37875 58.781 6.76662C59.0027 7.1545 59.1135 7.60702 59.1135 8.12418ZM57.4973 7.7086C57.4973 7.43771 57.405 7.22222 57.2203 7.06215C57.0356 6.90207 56.8047 6.82203 56.5277 6.82203C56.2629 6.82203 56.0382 6.89899 55.8535 7.05291C55.6749 7.20683 55.5641 7.42539 55.521 7.7086H57.4973ZM61.7105 6.48957C61.8952 6.20636 62.1261 5.98472 62.4031 5.82464C62.6802 5.65841 62.988 5.57529 63.3266 5.57529V7.24685H62.8926C62.4986 7.24685 62.203 7.33304 62.006 7.50543C61.809 7.67166 61.7105 7.96718 61.7105 8.392V10.7839H60.1313V5.6307H61.7105V6.48957ZM63.9522 8.19806C63.9522 7.66858 64.0507 7.20375 64.2477 6.80356C64.4509 6.40337 64.7248 6.09554 65.0696 5.88005C65.4144 5.66457 65.7992 5.55682 66.224 5.55682C66.5626 5.55682 66.8705 5.62763 67.1475 5.76923C67.4307 5.91084 67.6524 6.10169 67.8124 6.34181V3.94992H69.3916V10.7839H67.8124V10.0451C67.6647 10.2914 67.4523 10.4884 67.1752 10.6361C66.9043 10.7839 66.5872 10.8578 66.224 10.8578C65.7992 10.8578 65.4144 10.75 65.0696 10.5345C64.7248 10.3129 64.4509 10.002 64.2477 9.6018C64.0507 9.19545 63.9522 8.72754 63.9522 8.19806ZM67.8124 8.2073C67.8124 7.81327 67.7016 7.50235 67.48 7.27455C67.2645 7.04675 66.9997 6.93285 66.6858 6.93285C66.3718 6.93285 66.1039 7.04675 65.8823 7.27455C65.6668 7.49619 65.5591 7.80403 65.5591 8.19806C65.5591 8.59209 65.6668 8.90609 65.8823 9.14004C66.1039 9.36784 66.3718 9.48174 66.6858 9.48174C66.9997 9.48174 67.2645 9.36784 67.48 9.14004C67.7016 8.91224 67.8124 8.60133 67.8124 8.2073ZM71.513 5.09507C71.236 5.09507 71.0082 5.01503 70.8296 4.85496C70.6573 4.68872 70.5711 4.48555 70.5711 4.24544C70.5711 3.99917 70.6573 3.796 70.8296 3.63592C71.0082 3.46969 71.236 3.38658 71.513 3.38658C71.7839 3.38658 72.0056 3.46969 72.178 3.63592C72.3565 3.796 72.4458 3.99917 72.4458 4.24544C72.4458 4.48555 72.3565 4.68872 72.178 4.85496C72.0056 5.01503 71.7839 5.09507 71.513 5.09507ZM72.298 5.6307V10.7839H70.7188V5.6307H72.298ZM73.3132 8.2073C73.3132 7.67166 73.4209 7.20375 73.6364 6.80356C73.858 6.40337 74.1628 6.09554 74.5507 5.88005C74.9447 5.66457 75.3941 5.55682 75.899 5.55682C76.5455 5.55682 77.0842 5.72613 77.5151 6.06475C77.9523 6.40337 78.2386 6.88052 78.374 7.49619H76.6932C76.5516 7.10216 76.2776 6.90515 75.8713 6.90515C75.5819 6.90515 75.351 7.01905 75.1787 7.24685C75.0063 7.46849 74.9201 7.78864 74.9201 8.2073C74.9201 8.62596 75.0063 8.94918 75.1787 9.17698C75.351 9.39862 75.5819 9.50945 75.8713 9.50945C76.2776 9.50945 76.5516 9.31243 76.6932 8.9184H78.374C78.2386 9.52176 77.9523 9.99583 77.5151 10.3406C77.078 10.6854 76.5393 10.8578 75.899 10.8578C75.3941 10.8578 74.9447 10.75 74.5507 10.5345C74.1628 10.3191 73.858 10.0112 73.6364 9.61103C73.4209 9.21084 73.3132 8.74293 73.3132 8.2073ZM82.2755 9.4448V10.7839H81.4721C80.8995 10.7839 80.4531 10.6454 80.133 10.3683C79.8128 10.0851 79.6528 9.62642 79.6528 8.99228V6.94209H79.0248V5.6307H79.6528V4.37473H81.232V5.6307H82.2663V6.94209H81.232V9.01075C81.232 9.16467 81.2689 9.27549 81.3428 9.34321C81.4167 9.41094 81.5398 9.4448 81.7122 9.4448H82.2755Z" fill="#1935CA"/>
<path fill-rule="evenodd" clip-rule="evenodd" d="M7.75379 4.11785V4.18198V4.6309H7.94619V5.66027C7.41188 5.69362 6.98421 6.13731 6.98421 6.67836V7.19617H6.72768C6.67379 7.19617 6.62381 7.21304 6.58239 7.24177L5.63419 6.71494C5.63598 6.70447 5.63744 6.69406 5.63744 6.68312C5.63744 6.60015 5.58345 6.52924 5.50918 6.5025V5.78528H5.70158V5.27222H5.18852V5.33635V5.78528H5.38092V6.5025C5.30665 6.52924 5.25265 6.60015 5.25265 6.68312C5.25265 6.78862 5.33955 6.87551 5.44505 6.87551C5.49338 6.87551 5.53735 6.85658 5.57131 6.82666L6.49771 7.34147C6.48125 7.37525 6.47116 7.4128 6.47116 7.4527V8.41468H4.67547V8.22228H4.16241V8.28641V8.73534H4.67547V8.54294H6.47116V8.73534V8.98986L5.57156 9.48989C5.53756 9.45979 5.49355 9.44078 5.44505 9.44078C5.33955 9.44078 5.25265 9.52768 5.25265 9.63318C5.25265 9.71615 5.30665 9.78681 5.38092 9.81355V10.531H5.18852V10.5952V11.0441H5.70158V10.531H5.50918V9.81355C5.58345 9.78681 5.63744 9.71615 5.63744 9.63318C5.63744 9.62239 5.63593 9.61194 5.63419 9.60161L6.47116 9.13666V9.63318V9.76144C6.47116 9.90246 6.58668 10.018 6.72768 10.018H7.94619V11.3006H7.75379V11.3647V11.8137H8.26685V11.3006H8.07445V10.018H9.29295C9.43396 10.018 9.54948 9.90246 9.54948 9.76144V9.13666L10.3864 9.60161C10.3847 9.61194 10.3832 9.62239 10.3832 9.63318C10.3832 9.71615 10.4372 9.78681 10.5115 9.81355V10.531H10.3191V10.5952V11.0441H10.8321V10.531H10.6397V9.81355C10.714 9.78681 10.768 9.71615 10.768 9.63318C10.768 9.52768 10.6811 9.44078 10.5756 9.44078C10.5272 9.44078 10.4833 9.45968 10.4493 9.48963L9.54948 8.99011V8.54294H11.3452V8.73534H11.8582V8.22228H11.3452V8.28641V8.41468H9.54948V7.4527C9.54948 7.4128 9.53939 7.37525 9.52293 7.34147L10.4496 6.82666C10.4835 6.8565 10.5273 6.87551 10.5756 6.87551C10.6811 6.87551 10.768 6.78862 10.768 6.68312C10.768 6.60015 10.714 6.52924 10.6397 6.5025V5.78528H10.8321V5.27222H10.3191V5.33635V5.78528H10.5115V6.5025C10.4372 6.52924 10.3832 6.60015 10.3832 6.68312C10.3832 6.69406 10.3847 6.70447 10.3864 6.71494L9.43825 7.24177C9.39683 7.21304 9.34685 7.19617 9.29295 7.19617H7.49651V6.67936C7.49651 6.39339 7.71984 6.17007 8.01007 6.17007C8.29941 6.17007 8.52204 6.39212 8.52337 6.67686V6.68312C8.52337 6.82413 8.63889 6.93965 8.7799 6.93965C8.92091 6.93965 9.03643 6.82413 9.03643 6.68312V6.66408C9.0365 6.65911 9.036 6.65415 9.03492 6.6493C9.01982 6.12158 8.59907 5.69301 8.07445 5.66027V4.6309H8.26685V4.11785H7.75379ZM7.88206 4.24611H8.13858V4.50264H7.88206V4.24611ZM5.31679 5.40049H5.57331V5.65701H5.31679V5.40049ZM10.4473 5.40049H10.7039V5.65701H10.4473V5.40049ZM8.01032 5.78528C8.50491 5.78528 8.90816 6.18585 8.90816 6.67836V6.68312C8.90816 6.75529 8.85207 6.81138 8.7799 6.81138C8.70773 6.81138 8.65164 6.75529 8.65164 6.68312V6.67936H8.65189C8.65189 6.67767 8.65165 6.67604 8.65164 6.67435V6.66408C8.6517 6.65954 8.65128 6.655 8.65038 6.65055C8.63535 6.31029 8.3574 6.0418 8.01007 6.0418C7.65293 6.0418 7.36825 6.32548 7.36825 6.67936V7.19617H7.11247V6.67836C7.11247 6.18585 7.51573 5.78528 8.01032 5.78528ZM5.44505 6.61899C5.48123 6.61899 5.50918 6.64695 5.50918 6.68312C5.50918 6.7193 5.48123 6.74725 5.44505 6.74725C5.40887 6.74725 5.38092 6.7193 5.38092 6.68312C5.38092 6.64695 5.40887 6.61899 5.44505 6.61899ZM10.5756 6.61899C10.6118 6.61899 10.6397 6.64695 10.6397 6.68312C10.6397 6.7193 10.6118 6.74725 10.5756 6.74725C10.5394 6.74725 10.5115 6.7193 10.5115 6.68312C10.5115 6.64695 10.5394 6.61899 10.5756 6.61899ZM6.72768 7.32444H9.29295C9.36512 7.32444 9.42122 7.38054 9.42122 7.4527V8.73534H6.59942V7.4527C6.59942 7.38054 6.65552 7.32444 6.72768 7.32444ZM8.01032 7.58096C7.83398 7.58096 7.68966 7.72529 7.68966 7.90162C7.68974 8.00035 7.74173 8.08666 7.81792 8.14688V8.60682H8.20271V8.14663C8.27884 8.08648 8.3308 8.00024 8.33098 7.90162C8.33098 7.72529 8.18665 7.58096 8.01032 7.58096ZM8.01032 7.70923C8.11734 7.70923 8.20271 7.79461 8.20271 7.90162C8.20259 7.97035 8.16603 8.0336 8.10652 8.06796L8.07445 8.0865V8.47881H7.94619V8.08675L7.91412 8.06821C7.85455 8.03381 7.81798 7.97041 7.81792 7.90162C7.81792 7.79461 7.9033 7.70923 8.01032 7.70923ZM4.29068 8.35054H4.5472V8.41468V8.54294V8.60707H4.29068V8.35054ZM11.4734 8.35054H11.73V8.60707H11.4734V8.35054ZM6.59942 8.8636H9.42122V9.50492H6.59942V8.8636ZM6.79182 8.99186V9.05599V9.37665H7.17661V8.99186H6.79182ZM7.30487 8.99186V9.05599V9.37665H7.68966V8.99186H7.30487ZM7.81792 8.99186V9.05599V9.37665H8.20271V8.99186H7.81792ZM8.33098 8.99186V9.05599V9.37665H8.71577V8.99186H8.33098ZM8.84403 8.99186V9.05599V9.37665H9.22882V8.99186H8.84403ZM6.92008 9.12013H7.04834V9.24839H6.92008V9.12013ZM7.43313 9.12013H7.5614V9.24839H7.43313V9.12013ZM7.94619 9.12013H8.07445V9.24839H7.94619V9.12013ZM8.45924 9.12013H8.5875V9.24839H8.45924V9.12013ZM8.97229 9.12013H9.10056V9.24839H8.97229V9.12013ZM5.44505 9.56905C5.48123 9.56905 5.50918 9.59701 5.50918 9.63318C5.50918 9.66936 5.48123 9.69731 5.44505 9.69731C5.40887 9.69731 5.38092 9.66936 5.38092 9.63318C5.38092 9.59701 5.40887 9.56905 5.44505 9.56905ZM10.5756 9.56905C10.6118 9.56905 10.6397 9.59701 10.6397 9.63318C10.6397 9.66936 10.6118 9.69731 10.5756 9.69731C10.5394 9.69731 10.5115 9.66936 10.5115 9.63318C10.5115 9.59701 10.5394 9.56905 10.5756 9.56905ZM6.59942 9.63318H9.42122V9.76144C9.42122 9.83362 9.36512 9.88971 9.29295 9.88971H6.72768C6.65552 9.88971 6.59942 9.83362 6.59942 9.76144V9.63318ZM5.31679 10.6593H5.57331V10.9158H5.31679V10.6593ZM10.4473 10.6593H10.7039V10.9158H10.4473V10.6593ZM7.88206 11.4289H8.13858V11.6854H7.88206V11.4289Z" fill="white"/>
</svg>
